# xmcd
#
# Track frame offsets: 
#        150
#        20471
#        33737
#        51070
#        75274
#        100092
#        113890
#        128354
#        141530
#        162226
#        182147
#        200961
#        218706
#
# Disc length: 3218 seconds
#
# Revision: 0
# Processed by: cddbd v1.5.1PL2 Copyright (c) Steve Scherf et al.
# Submitted via: ExactAudioCopy v0.95b4
#
DISCID=b20c900d
DTITLE=Alaska - Gotham City - 1986-1987 Demos
DYEAR=1986
DGENRE=Rock
TTITLE0=You've Been Runnin'
TTITLE1=Boys In Town
TTITLE2=The Warrior
TTITLE3=Bad Attitude
TTITLE4=Bad Attitude
TTITLE5=Wrap It Up
TTITLE6=You Better Run
TTITLE7=Boys In Town
TTITLE8=Will I Ever Understand You
TTITLE9=Middle Of The Road
TTITLE10=Barracuda
TTITLE11=Living On A Prayer
TTITLE12=Doug And Jeff Jam
EXTD=
EXTT0=
EXTT1=
EXTT2=
EXTT3=
EXTT4=
EXTT5=
EXTT6=
EXTT7=
EXTT8=
EXTT9=
EXTT10=
EXTT11=
EXTT12=
PLAYORDER=
